<?xml version="1.0" encoding="UTF-8"?>
<svg id="Layer_1" data-name="Layer 1" xmlns="http://www.w3.org/2000/svg" viewBox="0 0 41.51 53.72">
  <defs>
    <style>
      .cls-1 {
        fill: #fff;
      }
    </style>
  </defs>
  <polyline class="cls-1" points="17.09 2.44 17.09 24.42 19.53 24.42 19.53 14.65 24.42 14.65 24.42 24.42 26.86 24.42 26.86 17.09 31.74 17.09 31.74 26.86 34.19 26.86 34.19 19.53 36.63 19.53 36.63 21.98 39.07 21.98 39.07 39.07 36.63 39.07 36.63 46.39 34.19 46.41 34.19 51.28 14.65 51.28 14.65 46.39 12.21 46.39 12.21 41.51 9.77 41.51 9.77 36.63 7.33 36.63 7.33 31.74 4.88 31.74 4.88 29.3 2.44 29.3 2.44 24.42 7.33 24.42 7.33 26.86 9.77 26.86 9.77 29.3 12.21 29.3 12.21 2.44 17.09 2.44"/>
  <path d="m9.77,2.44h2.44v26.86h-2.44v-2.44h-2.44v-2.44h2.44V2.44Zm29.3,19.53v17.09h2.44v-17.09h-2.44ZM0,21.98v7.33h2.44v-4.88h4.88v-2.44H0Zm7.33,14.65v-4.88h-2.44v4.88h2.44Zm2.44,4.88v-4.88h-2.44v4.88h2.44Zm2.44,4.88v7.33h24.42v-7.31h-2.44v4.87H14.65v-4.88h-2.44v-4.88h-2.44v4.88h2.44Zm24.42,0h2.44v-7.33h-2.44v7.33ZM4.88,31.74v-2.44h-2.44v2.44h2.44Zm31.74-12.21v2.44h2.44v-2.44h-2.44Zm-4.88-2.44v9.77h2.44v-7.33h2.44v-2.44h-4.88Zm-7.33-2.44v9.77h2.44v-7.33h4.88v-2.44h-7.33Zm-4.88-2.44V2.44h-2.44v21.98h2.44v-9.77h4.88v-2.44h-4.88ZM12.21,0v2.44h4.88V0h-4.88Z"/>
</svg>